<svg width="223" height="284" viewBox="0 0 223 284" fill="none" xmlns="http://www.w3.org/2000/svg">
  <g opacity="0.55">
    <ellipse cx="58.8594" cy="226.348" rx="5.63899" ry="5.24764" transform="rotate(-180 58.8594 226.348)" fill="white" fill-opacity="0.5"/>
    <ellipse cx="58.8594" cy="131.191" rx="5.63899" ry="5.24764" transform="rotate(-180 58.8594 131.191)" fill="white" fill-opacity="0.5"/>
    <ellipse cx="58.8594" cy="194.512" rx="5.63899" ry="5.59748" transform="rotate(-180 58.8594 194.512)" fill="white" fill-opacity="0.5"/>
    <ellipse cx="58.8594" cy="99.7052" rx="5.63899" ry="5.24764" transform="rotate(-180 58.8594 99.7052)" fill="white" fill-opacity="0.5"/>
    <ellipse cx="58.8594" cy="257.834" rx="5.63899" ry="5.24764" transform="rotate(-180 58.8594 257.834)" fill="white" fill-opacity="0.5"/>
    <ellipse cx="58.8594" cy="162.677" rx="5.63899" ry="5.24764" transform="rotate(-180 58.8594 162.677)" fill="white" fill-opacity="0.5"/>
    <ellipse cx="58.8594" cy="68.2194" rx="5.63899" ry="5.24764" transform="rotate(-180 58.8594 68.2194)" fill="white" fill-opacity="0.5"/>
  </g>
  <g opacity="0.55">
    <ellipse cx="6.22857" cy="257.834" rx="5.63899" ry="5.24764" transform="rotate(-180 6.22857 257.834)" fill="white" fill-opacity="0.5"/>
    <ellipse cx="6.22857" cy="163.377" rx="5.63899" ry="5.24764" transform="rotate(-180 6.22857 163.377)" fill="white" fill-opacity="0.5"/>
    <ellipse cx="6.22857" cy="68.2195" rx="5.63899" ry="5.24764" transform="rotate(-180 6.22857 68.2195)" fill="white" fill-opacity="0.5"/>
    <ellipse cx="6.22857" cy="226.348" rx="5.63899" ry="5.24764" transform="rotate(-180 6.22857 226.348)" fill="white" fill-opacity="0.5"/>
    <ellipse cx="6.22857" cy="131.541" rx="5.63899" ry="5.59748" transform="rotate(-180 6.22857 131.541)" fill="white" fill-opacity="0.5"/>
    <ellipse cx="6.22857" cy="36.7337" rx="5.63899" ry="5.24764" transform="rotate(-180 6.22857 36.7337)" fill="white" fill-opacity="0.5"/>
    <ellipse cx="6.22857" cy="194.862" rx="5.63899" ry="5.24764" transform="rotate(-180 6.22857 194.862)" fill="white" fill-opacity="0.5"/>
    <ellipse cx="6.22857" cy="99.7054" rx="5.63899" ry="5.24764" transform="rotate(-180 6.22857 99.7054)" fill="white" fill-opacity="0.5"/>
    <ellipse cx="6.22857" cy="5.24772" rx="5.63899" ry="5.24764" transform="rotate(-180 6.22857 5.24772)" fill="white" fill-opacity="0.5"/>
  </g>
  <g opacity="0.55">
    <ellipse cx="111.49" cy="194.163" rx="5.63899" ry="5.24764" transform="rotate(-180 111.49 194.163)" fill="white" fill-opacity="0.5"/>
    <ellipse cx="111.49" cy="257.484" rx="5.63899" ry="5.59748" transform="rotate(-180 111.49 257.484)" fill="white" fill-opacity="0.5"/>
    <ellipse cx="111.49" cy="162.677" rx="5.63899" ry="5.24764" transform="rotate(-180 111.49 162.677)" fill="white" fill-opacity="0.5"/>
    <ellipse cx="111.49" cy="225.648" rx="5.63899" ry="5.24764" transform="rotate(-180 111.49 225.648)" fill="white" fill-opacity="0.5"/>
    <ellipse cx="111.49" cy="131.191" rx="5.63899" ry="5.24764" transform="rotate(-180 111.49 131.191)" fill="white" fill-opacity="0.5"/>
  </g>
  <g opacity="0.55">
    <ellipse cx="164.119" cy="257.834" rx="5.63899" ry="5.24764" transform="rotate(-180 164.119 257.834)" fill="white" fill-opacity="0.5"/>
    <ellipse cx="164.119" cy="226.348" rx="5.63899" ry="5.24764" transform="rotate(-180 164.119 226.348)" fill="white" fill-opacity="0.5"/>
    <ellipse cx="164.119" cy="194.862" rx="5.63899" ry="5.24764" transform="rotate(-180 164.119 194.862)" fill="white" fill-opacity="0.5"/>
  </g>
  <g opacity="0.55">
    <ellipse cx="216.749" cy="257.834" rx="5.63899" ry="5.24764" transform="rotate(-180 216.749 257.834)" fill="white" fill-opacity="0.5"/>
  </g>
  <g opacity="0.55">
    <ellipse cx="5.65398" cy="5.26159" rx="5.65398" ry="5.26159" transform="matrix(-1 -1.74846e-07 -1.74846e-07 1 64.0796 283.456)" fill="white" fill-opacity="0.5"/>
  </g>
  <g opacity="0.55">
    <ellipse cx="5.65398" cy="5.26159" rx="5.65398" ry="5.26159" transform="matrix(-1 -1.74846e-07 -1.74846e-07 1 11.308 283.456)" fill="white" fill-opacity="0.5"/>
  </g>
  <g opacity="0.55">
    <ellipse cx="5.65398" cy="5.26159" rx="5.65398" ry="5.26159" transform="matrix(-1 -1.74846e-07 -1.74846e-07 1 169.619 283.456)" fill="white" fill-opacity="0.5"/>
  </g>
</svg>
