<svg width="142" height="142" viewBox="0 0 142 142" fill="none" xmlns="http://www.w3.org/2000/svg">
  <circle cx="71" cy="71" r="71" transform="rotate(-180 71 71)" fill="#5A5781"/>
  <path d="M107 75C109.209 75 111 73.2091 111 71C111 68.7909 109.209 67 107 67L107 75ZM32.1716 68.1716C30.6095 69.7337 30.6095 72.2663 32.1716 73.8284L57.6274 99.2843C59.1895 100.846 61.7222 100.846 63.2843 99.2843C64.8464 97.7222 64.8464 95.1895 63.2843 93.6274L40.6569 71L63.2843 48.3726C64.8464 46.8105 64.8464 44.2778 63.2843 42.7157C61.7222 41.1536 59.1895 41.1536 57.6274 42.7157L32.1716 68.1716ZM107 67L35 67L35 75L107 75L107 67Z" fill="white" fill-opacity="0.6"/>
</svg>
