<svg width="142" height="142" viewBox="0 0 142 142" fill="none" xmlns="http://www.w3.org/2000/svg">
  <circle cx="71" cy="71" r="71" fill="#5A5781"/>
  <path d="M35 67C32.7909 67 31 68.7909 31 71C31 73.2091 32.7909 75 35 75L35 67ZM109.828 73.8284C111.391 72.2663 111.391 69.7337 109.828 68.1716L84.3726 42.7157C82.8105 41.1536 80.2778 41.1536 78.7157 42.7157C77.1536 44.2778 77.1536 46.8105 78.7157 48.3726L101.343 71L78.7157 93.6274C77.1536 95.1895 77.1536 97.7222 78.7157 99.2843C80.2778 100.846 82.8105 100.846 84.3726 99.2843L109.828 73.8284ZM35 75L107 75L107 67L35 67L35 75Z" fill="white" fill-opacity="0.6"/>
</svg>
