<svg width="32" height="32" viewBox="0 0 32 32" fill="none" xmlns="http://www.w3.org/2000/svg">
  <circle cx="16" cy="16" r="16" fill="white"/>
  <path d="M14.55 19.2C14.55 18.3 14.75 17.5583 15.15 16.975C15.5667 16.375 16.1667 15.725 16.95 15.025C17.55 14.4917 17.9917 14.0333 18.275 13.65C18.575 13.25 18.725 12.8 18.725 12.3C18.725 11.6 18.4417 11.0333 17.875 10.6C17.3083 10.1667 16.55 9.95 15.6 9.95C13.8 9.95 12.4417 10.5917 11.525 11.875L9.1 10.3C9.81667 9.31667 10.7417 8.56667 11.875 8.05C13.0083 7.51667 14.3417 7.25 15.875 7.25C17.7417 7.25 19.225 7.65833 20.325 8.475C21.4417 9.275 22 10.3833 22 11.8C22 12.4833 21.8833 13.0833 21.65 13.6C21.4333 14.1167 21.1667 14.5583 20.85 14.925C20.5333 15.275 20.1167 15.6833 19.6 16.15C18.9667 16.7167 18.4917 17.2167 18.175 17.65C17.875 18.0833 17.725 18.6 17.725 19.2H14.55ZM16.15 25.175C15.5667 25.175 15.0833 24.9917 14.7 24.625C14.3333 24.2417 14.15 23.775 14.15 23.225C14.15 22.675 14.3333 22.2167 14.7 21.85C15.0833 21.4833 15.5667 21.3 16.15 21.3C16.7167 21.3 17.1833 21.4833 17.55 21.85C17.9333 22.2167 18.125 22.675 18.125 23.225C18.125 23.775 17.9333 24.2417 17.55 24.625C17.1833 24.9917 16.7167 25.175 16.15 25.175Z" fill="#14104B"/>
</svg>
