<svg width="83" height="83" viewBox="0 0 83 83" fill="none" xmlns="http://www.w3.org/2000/svg">
  <g clip-path="url(#clip0_18_389)">
    <path d="M2.7586 80.1815V77.4695H0.0457964C0.0316218 77.1984 0.0130854 77.0056 0.0130854 76.8161C0.0130854 53.275 0.00872284 29.7332 0 6.19072C0 5.65378 0.155921 5.5013 0.67493 5.53724C1.34005 5.57972 2.01061 5.54813 2.73461 5.54813V2.81443C3.52621 2.81443 4.26111 2.79264 4.99928 2.82314C5.4038 2.83948 5.55536 2.71423 5.53791 2.3058C5.51174 1.68936 5.53791 1.07183 5.52592 0.454294C5.51829 0.127556 5.65458 -0.000958855 5.97842 0.00666502C6.50506 0.0197345 7.0317 0.00666502 7.55943 0.00666502H76.6879C76.834 0.00666502 76.9801 0.0142889 77.1241 0.00666502C77.4708 -0.0129392 77.6104 0.134099 77.6006 0.490243C77.582 1.23303 77.5951 1.97689 77.5951 2.79591H80.3079V5.51872H83.0011V77.4303H80.3526V80.1532H77.5951C77.5951 80.8938 77.5951 81.5592 77.5951 82.2225C77.5951 82.9849 77.5951 82.9849 76.8057 82.9849C76.0788 82.9849 75.3519 82.9849 74.625 82.9849H8.0043C7.38606 82.9849 6.76674 82.9653 6.15069 82.9958C5.69165 83.0175 5.48558 82.8869 5.51829 82.388C5.55754 81.8097 5.51829 81.2259 5.53028 80.6454C5.54009 80.2991 5.42125 80.1619 5.06034 80.1749C4.31999 80.2033 3.57745 80.1815 2.7586 80.1815ZM80.1367 77.3084V5.66031H77.4174V2.99632H5.60552V5.70279H2.9276V77.3171H5.63823V79.993H77.4555V77.3084H80.1367Z" fill="white"/>
    <path d="M16.8857 52.7354V54.5412C17.3993 54.5412 17.8997 54.5531 18.4002 54.5412C18.7066 54.5313 18.82 54.6501 18.8178 54.9539C18.8069 56.0431 18.8069 57.1322 18.8178 58.2213C18.8178 58.535 18.6772 58.6341 18.3817 58.6275C17.8954 58.6177 17.4091 58.6275 16.8486 58.6275C16.8486 59.1874 16.8748 59.6905 16.8312 60.1883C16.8192 60.332 16.6131 60.5738 16.4855 60.5749C13.9984 60.5945 11.5124 60.5847 9.02533 60.5749C8.97785 60.5639 8.93202 60.5467 8.88904 60.5237V46.7267H16.841V48.6555C17.3862 48.6555 17.8725 48.6686 18.3555 48.6555C18.6717 48.6446 18.82 48.7426 18.8156 49.0835C18.8036 50.1727 18.8244 51.2618 18.7938 52.3509C18.7938 52.4849 18.5638 52.7114 18.4242 52.7245C17.9412 52.7626 17.4483 52.7354 16.8857 52.7354ZM16.6785 54.6958C14.8369 54.6958 13.0586 54.7023 11.2813 54.6958C10.9204 54.6958 10.9226 54.9136 10.9215 55.1587C10.9215 55.993 10.9149 56.8272 10.9215 57.6637C10.9215 57.9272 10.9433 58.1897 10.9542 58.4261H16.6818L16.6785 54.6958ZM16.6785 48.8516H10.9738V52.5404H16.6785V48.8516Z" fill="white"/>
    <path d="M33.0901 50.8H31.1667V52.7114H29.1899V54.6544H27.1182C27.1182 54.1447 27.1095 53.66 27.1182 53.1754C27.1258 52.8585 27.0168 52.6984 26.6755 52.7332C26.494 52.7436 26.3119 52.7436 26.1304 52.7332C25.0171 52.719 25.1763 52.8726 25.1567 51.7356C25.1512 51.4328 25.1567 51.13 25.1567 50.8H23.3194V60.5313H21.2881V46.7267H23.2736V48.6414H25.2363V50.6072H27.2033V52.5404H29.0809V50.6181C29.4614 50.6181 29.7809 50.6247 30.0992 50.6181C31.1089 50.5942 31.0337 50.8283 31.0413 49.6499C31.0413 49.3449 31.0413 49.04 31.0413 48.6784H33.0334V46.7452H35.0887V60.5433H33.0901V50.8Z" fill="white"/>
    <path d="M64.3854 58.4348H72.1269V46.6995C72.8019 46.6995 73.3819 46.6821 73.9576 46.7147C74.0754 46.7213 74.2117 46.9053 74.2848 47.0415C74.3371 47.1417 74.2989 47.2898 74.2989 47.4172C74.2989 50.9024 74.2989 54.3876 74.2989 57.8728C74.2989 58.62 74.2989 58.62 73.5444 58.6232C73.1988 58.6232 72.8531 58.6232 72.5086 58.6298C72.4551 58.6298 72.3995 58.6461 72.2752 58.6657V60.5532H64.2993V58.6167H63.1108C62.317 58.6167 62.3105 58.6167 62.3105 57.8075C62.3105 54.5597 62.3105 51.3112 62.3105 48.062C62.3105 47.7538 62.3159 47.4455 62.3105 47.1373C62.305 46.8291 62.4261 46.6777 62.7619 46.6908C63.2853 46.7115 63.8086 46.6908 64.3876 46.6908L64.3854 58.4348Z" fill="white"/>
    <path d="M45.555 60.5771C43.5848 60.5771 41.7323 60.5771 39.8852 60.5771C39.5919 60.5771 39.5047 60.4497 39.509 60.1828C39.5178 59.6796 39.509 59.1765 39.509 58.6058C38.9573 58.6058 38.4721 58.5949 37.9825 58.6058C37.6718 58.6156 37.506 58.5295 37.5224 58.1799C37.5431 57.7268 37.506 57.2705 37.5431 56.8196C37.5631 56.7458 37.6015 56.6782 37.6547 56.6231C37.7079 56.5681 37.7741 56.5274 37.8473 56.5048C38.4219 56.4733 38.9998 56.4896 39.6333 56.4896V58.413H45.3566V54.71C45.1527 54.7002 44.9597 54.6838 44.7667 54.6838C43.2042 54.6838 41.6407 54.6686 40.0782 54.6915C39.6213 54.698 39.4643 54.5433 39.4959 54.0968C39.5276 53.6503 39.5025 53.2331 39.5025 52.7212C38.9682 52.7212 38.4841 52.7082 38.0011 52.7212C37.6598 52.7332 37.5126 52.6232 37.5191 52.2573C37.5388 51.1866 37.5344 50.115 37.5191 49.0443C37.5191 48.7361 37.6282 48.6261 37.9335 48.6359C38.4219 48.6523 38.9148 48.6359 39.5003 48.6359C39.5003 48.0914 39.5079 47.5773 39.5003 47.06C39.5003 46.7866 39.5941 46.669 39.8808 46.6701C41.6974 46.6788 43.515 46.6701 45.3326 46.6799C45.4018 46.6937 45.4688 46.7164 45.5321 46.7474V48.625H47.4948C47.4948 49.2916 47.509 49.9015 47.4795 50.5092C47.4795 50.5963 47.2615 50.7347 47.1426 50.7423C46.7065 50.7717 46.2703 50.7423 45.8342 50.7597C45.5071 50.7706 45.3751 50.6388 45.385 50.3099C45.4013 49.8263 45.385 49.3406 45.385 48.8265H39.6933V52.5568H42.3101C43.1279 52.5568 43.9457 52.5568 44.7634 52.5568C45.6739 52.5568 45.5267 52.5099 45.5365 53.3562C45.5365 53.7167 45.5365 54.0772 45.5365 54.4965H47.4991V55.4506C47.4991 56.3034 47.4763 57.1572 47.5057 58.0089C47.521 58.4446 47.4021 58.6417 46.9333 58.6025C46.4971 58.5676 46.061 58.5949 45.5496 58.5949L45.555 60.5771Z" fill="white"/>
    <path d="M27.7124 37.2274V35.3214H25.7891V33.3H27.852V35.1667C28.0417 35.1842 28.1966 35.2103 28.3514 35.2103C29.8964 35.2103 31.4415 35.194 32.9854 35.2212C33.4913 35.2299 33.632 35.0644 33.6145 34.5677C33.5764 33.5352 33.6025 32.4984 33.6025 31.3995H27.731V29.4521H25.7978V25.3799H27.7179C27.7179 24.7972 27.7266 24.2907 27.7179 23.7908C27.7114 23.5131 27.8193 23.3998 28.0995 23.3998C29.8626 23.4053 31.6257 23.3933 33.3877 23.4184C33.5142 23.4184 33.7312 23.6601 33.7454 23.805C33.7901 24.2897 33.7617 24.7852 33.7617 25.3624C34.26 25.3624 34.7256 25.381 35.1879 25.357C35.5772 25.3363 35.7331 25.4583 35.7331 25.8743C35.756 27.4895 35.7702 27.4906 34.151 27.4677C33.9929 27.4677 33.8337 27.4459 33.6058 27.4296V25.5443H27.9185V29.2539C28.0995 29.2626 28.2925 29.2789 28.4844 29.28C30.0654 29.28 31.6465 29.2909 33.2275 29.28C33.6222 29.28 33.7955 29.3955 33.7661 29.8061C33.7399 30.1677 33.7661 30.5325 33.753 30.8952C33.7421 31.174 33.8621 31.2895 34.1335 31.2873C34.5336 31.2763 34.9339 31.2861 35.3329 31.3167C35.4671 31.3308 35.6993 31.4757 35.7004 31.5639C35.7255 32.7924 35.7167 34.021 35.7167 35.3051H33.7694V37.2295L27.7124 37.2274Z" fill="white"/>
    <path d="M17.173 25.5073C16.0205 25.5073 14.9694 25.4888 13.9205 25.516C13.4844 25.528 13.3208 25.4071 13.3219 24.9431C13.3219 23.4009 13.311 23.4009 14.8549 23.4009H23.243V25.4888H19.2676V37.2296H17.173V25.5073Z" fill="white"/>
    <path d="M53.7763 60.5771V48.8146C52.686 48.8146 51.6392 48.7939 50.5936 48.8244C50.1149 48.8375 49.8914 48.7285 49.9459 48.1981C49.9928 47.7331 49.9557 47.2582 49.9557 46.7387H59.9216C59.9216 47.3432 59.9466 47.9367 59.8998 48.526C59.8921 48.6349 59.5999 48.7972 59.4353 48.8015C58.4747 48.8276 57.5119 48.8146 56.5502 48.8146H55.8883V49.504C55.8883 52.9892 55.8796 56.4657 55.8971 59.9476C55.8971 60.4323 55.788 60.6403 55.2636 60.5891C54.7991 60.5434 54.327 60.5771 53.7763 60.5771Z" fill="white"/>
    <path d="M8.89013 23.4074C9.48655 23.4074 10.0295 23.3889 10.5693 23.4216C10.6892 23.4281 10.8222 23.6002 10.9029 23.7255C10.9531 23.8039 10.9193 23.9433 10.9193 24.0522C10.9193 28.2599 10.9193 32.4679 10.9193 36.6763C10.9193 36.8538 10.8997 37.0324 10.8866 37.2437H8.88904L8.89013 23.4074Z" fill="white"/>
    <path d="M48.1316 37.2459H38.1167C38.1167 36.6523 38.0883 36.0762 38.1407 35.5033C38.1516 35.3944 38.4678 35.2234 38.6488 35.2201C40.0826 35.1972 41.5164 35.207 42.9502 35.207C44.4767 35.207 46.0032 35.2245 47.5232 35.195C48.0116 35.1852 48.1697 35.3519 48.1381 35.8191C48.1065 36.2863 48.1316 36.7547 48.1316 37.2459Z" fill="white"/>
  </g>
  <defs>
    <clipPath id="clip0_18_389">
      <rect width="83" height="83" fill="white"/>
    </clipPath>
  </defs>
</svg>
